# xmcd
#
# Track frame offsets:
#	150
#	24230
#	37630
#	40160
#	57107
#	72782
#	76620
#	90887
#	93652
#	111080
#	114082
#	130890
#	138902
#	157087
#	163075
#	180007
#	196025
#	216765
#
# Disc length: 2969 seconds
#
# Revision: 1
# Processed by: cddbd v1.5.1PL0 Copyright (c) Steve Scherf et al.
# Submitted via: audiograbber 1.83.01
#
DISCID=cd0b9712
DTITLE=Keith Moore - Mississippi Noise
DYEAR=1998
DGENRE=Country
TTITLE0=Rain
TTITLE1=Get to You
TTITLE2=Island Home
TTITLE3=Love Pretend
TTITLE4=River Ever Winds
TTITLE5=Red Rose Reel
TTITLE6=Suv U
TTITLE7=Be Thou My Vision
TTITLE8=Southern Moon
TTITLE9=Big Walker Mountain
TTITLE10=Sing
TTITLE11=Moneghan Waltz
TTITLE12=Bennie
TTITLE13=Out on the Ocean
TTITLE14=What Ya Gonna Do?
TTITLE15=Mississippi Noise
TTITLE16=Chasing Dreams and Dragonflies
TTITLE17=Little Blake
EXTD=
EXTT0=
EXTT1=
EXTT2=
EXTT3=
EXTT4=
EXTT5=
EXTT6=
EXTT7=
EXTT8=
EXTT9=
EXTT10=
EXTT11=
EXTT12=
EXTT13=
EXTT14=
EXTT15=
EXTT16=
EXTT17=
PLAYORDER=
